<?xml version="1.0" encoding="iso-8859-1"?>
<!-- Generator: Adobe Illustrator 19.0.0, SVG Export Plug-In . SVG Version: 6.00 Build 0)  -->
<svg version="1.1" id="Layer_1" xmlns="http://www.w3.org/2000/svg" xmlns:xlink="http://www.w3.org/1999/xlink" x="0px" y="0px"
	 viewBox="0 0 512 512" style="enable-background:new 0 0 512 512;" xml:space="preserve">
<polygon style="fill:#FCC24D;" points="167.523,0 133.868,0 120.529,111.142 117.582,135.701 183.805,135.701 "/>
<polygon style="fill:#E95353;" points="408.54,0 374.886,0 361.538,111.225 358.599,135.701 424.823,135.701 "/>
<path style="fill:#FCC24D;" d="M245.685,486.288c0,14.201-11.511,25.712-25.712,25.712H81.414
	c-14.201,0-25.712-11.511-25.712-25.712V206.315c0-14.199,11.511-25.711,25.712-25.711h138.559
	c14.201,0,25.712,11.512,25.712,25.711v279.973H245.685z"/>
<path style="fill:#E95353;" d="M486.702,486.288c0,14.201-11.511,25.712-25.712,25.712H322.431
	c-14.201,0-25.712-11.511-25.712-25.712V206.315c0-14.199,11.511-25.711,25.712-25.711H460.99c14.201,0,25.712,11.512,25.712,25.711
	V486.288z"/>
<path style="fill:#EFAC52;" d="M197.934,33.918h-60.463h-8.948H86.627c-33.817,0-61.329,27.512-61.329,61.328v2.412
	c0,30.338,21.714,55.81,51.632,60.568c0.446,0.07,0.89,0.105,1.328,0.105c4.05,0,7.614-2.941,8.269-7.069
	c0.728-4.573-2.39-8.871-6.963-9.597c-21.726-3.455-37.496-21.962-37.496-44.006v-2.412c0-24.572,19.989-44.56,44.561-44.56h41.896
	h8.948h60.463c4.63,0,8.384-3.753,8.384-8.384S202.563,33.918,197.934,33.918z"/>
<path style="fill:#C13636;" d="M438.951,33.918h-60.463h-8.948h-41.896c-33.817,0-61.329,27.512-61.329,61.328v2.412
	c0,30.338,21.714,55.81,51.63,60.568c0.446,0.07,0.89,0.105,1.328,0.105c4.05,0,7.614-2.941,8.27-7.069
	c0.728-4.573-2.39-8.871-6.965-9.597c-21.728-3.455-37.496-21.962-37.496-44.006v-2.412c0-24.572,19.99-44.56,44.561-44.56h41.896
	h8.948h60.463c4.63,0,8.384-3.753,8.384-8.384S443.581,33.918,438.951,33.918z"/>
<path style="fill:#EFAC52;" d="M222.171,168.232c0,7.409-6.007,13.415-13.415,13.415H92.634c-7.409,0-13.415-6.005-13.415-13.415
	v-21.353c0-7.408,6.005-13.415,13.415-13.415h116.122c7.408,0,13.415,6.007,13.415,13.415V168.232z"/>
<g>
	<path style="fill:#C13636;" d="M463.189,168.232c0,7.409-6.006,13.415-13.415,13.415H333.652c-7.409,0-13.415-6.005-13.415-13.415
		v-21.353c0-7.408,6.005-13.415,13.415-13.415h116.122c7.408,0,13.415,6.007,13.415,13.415V168.232z"/>
	<path style="fill:#C13636;" d="M458.784,470.961c0,7.408-6.005,13.415-13.415,13.415H338.051c-7.408,0-13.415-6.007-13.415-13.415
		V223.27c0-7.409,6.007-13.415,13.415-13.415H445.37c7.409,0,13.415,6.005,13.415,13.415V470.961z"/>
</g>
<path style="fill:#EFAC52;" d="M217.768,470.961c0,7.408-6.007,13.415-13.415,13.415H97.034c-7.408,0-13.415-6.007-13.415-13.415
	V359.716c0-7.408,6.007-13.415,13.415-13.415h107.319c7.408,0,13.415,6.007,13.415,13.415V470.961z"/>
<g>
	<path style="opacity:0.15;fill:#202020;enable-background:new    ;" d="M98.224,168.232v-21.353
		c0-7.408,6.005-13.415,13.415-13.415H92.634c-7.409,0-13.415,6.007-13.415,13.415v21.353c0,7.409,6.005,13.415,13.415,13.415
		h19.004C104.229,181.647,98.224,175.642,98.224,168.232z"/>
	<path style="opacity:0.15;fill:#202020;enable-background:new    ;" d="M339.241,168.232v-21.353
		c0-7.408,6.005-13.415,13.415-13.415h-19.004c-7.409,0-13.415,6.007-13.415,13.415v21.353c0,7.409,6.005,13.415,13.415,13.415
		h19.004C345.247,181.647,339.241,175.642,339.241,168.232z"/>
	<path style="opacity:0.15;fill:#202020;enable-background:new    ;" d="M343.64,470.961V223.27c0-7.409,6.007-13.415,13.415-13.415
		h-19.004c-7.408,0-13.415,6.005-13.415,13.415v247.691c0,7.408,6.007,13.415,13.415,13.415h19.004
		C349.648,484.375,343.64,478.369,343.64,470.961z"/>
	<path style="opacity:0.15;fill:#202020;enable-background:new    ;" d="M102.624,470.961V359.716
		c0-7.408,6.007-13.415,13.415-13.415H97.034c-7.408,0-13.415,6.007-13.415,13.415v111.245c0,7.408,6.007,13.415,13.415,13.415
		h19.004C108.63,484.375,102.624,478.369,102.624,470.961z"/>
</g>
<g>
</g>
<g>
</g>
<g>
</g>
<g>
</g>
<g>
</g>
<g>
</g>
<g>
</g>
<g>
</g>
<g>
</g>
<g>
</g>
<g>
</g>
<g>
</g>
<g>
</g>
<g>
</g>
<g>
</g>
</svg>
